<svg xmlns="http://www.w3.org/2000/svg" version="1.1" xmlns:xlink="http://www.w3.org/1999/xlink" xmlns:svgjs="http://svgjs.dev/svgjs" width="1440" height="560" preserveAspectRatio="none" viewBox="0 0 1440 560"><g mask="url(&quot;#SvgjsMask1006&quot;)" fill="none"><path d="M1019.56 279.9L1067.97 279.9L1067.97 328.31L1019.56 328.31z" stroke="rgba(3, 123, 11, 0.6)"></path><path d="M899.75 159.44 a44.92 44.92 0 1 0 89.84 0 a44.92 44.92 0 1 0 -89.84 0z" fill="rgba(231, 54, 53, 0.42)"></path><path d="M1105.12 7.23L1126.98 7.23L1126.98 29.09L1105.12 29.09z" stroke="rgba(231, 54, 53, 0.42)"></path><path d="M472.73 45.02L493.52 45.02L493.52 65.81L472.73 65.81z" fill="rgba(231, 54, 53, 0.42)"></path><path d="M1203.64 74.14L1203.77 74.14L1203.77 74.27L1203.64 74.27z" fill="rgba(3, 123, 11, 0.6)"></path><path d="M793.55 369.74a23.84 23.84 0 1 0 18.99 43.74z" fill="rgba(231, 54, 53, 0.42)"></path><path d="M1171.71 450.18L1219.24 450.18L1219.24 475.24L1171.71 475.24z" fill="rgba(3, 123, 11, 0.6)"></path><path d="M738.31 515.88L773.97 515.88L773.97 548.57L738.31 548.57z" stroke="rgba(231, 54, 53, 0.42)"></path><path d="M371.81 10.72 a10.36 10.36 0 1 0 20.72 0 a10.36 10.36 0 1 0 -20.72 0z" stroke="rgba(231, 54, 53, 0.42)"></path><path d="M1316.46 193.67a37.65 37.65 0 1 0 29.94-69.09z" stroke="rgba(3, 123, 11, 0.6)"></path><path d="M1393.46 468.38 a10.45 10.45 0 1 0 20.9 0 a10.45 10.45 0 1 0 -20.9 0z" stroke="rgba(231, 54, 53, 0.42)"></path><path d="M1163.76 52.98a26.73 26.73 0 1 0 53.2 5.3z" stroke="rgba(211, 183, 20, 0.48)"></path><path d="M618.12 3.36a31.53 31.53 0 1 0-23.85 58.37z" stroke="rgba(211, 183, 20, 0.48)"></path><path d="M1179.24 192.63a3.47 3.47 0 1 0 3.39-6.05z" stroke="rgba(211, 183, 20, 0.48)"></path><path d="M836.16 123.58L880.64 123.58L880.64 143.67L836.16 143.67z" fill="rgba(211, 183, 20, 0.48)"></path><path d="M1286.01 321.16 a35.65 35.65 0 1 0 71.3 0 a35.65 35.65 0 1 0 -71.3 0z" stroke="rgba(211, 183, 20, 0.48)"></path><path d="M1436.93 28.21a25.25 25.25 0 1 0-48.51 14.03z" stroke="rgba(211, 183, 20, 0.48)"></path><path d="M558.69 144.17L578.64 144.17L578.64 153.34L558.69 153.34z" fill="rgba(3, 123, 11, 0.6)"></path><path d="M1007.96 394.95a17.44 17.44 0 1 0 4.63-34.57z" stroke="rgba(3, 123, 11, 0.6)"></path><path d="M341.66 512.96 a36.42 36.42 0 1 0 72.84 0 a36.42 36.42 0 1 0 -72.84 0z" stroke="rgba(211, 183, 20, 0.48)"></path><path d="M810.68 202.8L828.42 202.8L828.42 220.54L810.68 220.54z" fill="rgba(211, 183, 20, 0.48)"></path><path d="M1353.67 498.78L1396.24 498.78L1396.24 507.47L1353.67 507.47z" stroke="rgba(3, 123, 11, 0.6)"></path><path d="M491.8 494.21 a47.38 47.38 0 1 0 94.76 0 a47.38 47.38 0 1 0 -94.76 0z" stroke="rgba(3, 123, 11, 0.6)"></path><path d="M1077.57 544.33L1093.43 544.33L1093.43 577.38L1077.57 577.38z" stroke="rgba(3, 123, 11, 0.6)"></path><path d="M424.94 394.33a4.35 4.35 0 1 0 4.64-7.36z" fill="rgba(231, 54, 53, 0.42)"></path><path d="M742.97 62.48 a12.05 12.05 0 1 0 24.1 0 a12.05 12.05 0 1 0 -24.1 0z" fill="rgba(3, 123, 11, 0.6)"></path><path d="M1041.92 23.88L1059.65 23.88L1059.65 41.61L1041.92 41.61z" stroke="rgba(231, 54, 53, 0.42)"></path><path d="M295.04 127.25a13.32 13.32 0 1 0-24.85 9.59z" stroke="rgba(211, 183, 20, 0.48)"></path><path d="M1180.65 463.77L1196.8 463.77L1196.8 517.51L1180.65 517.51z" stroke="rgba(3, 123, 11, 0.6)"></path><path d="M350.57 559.92a28.15 28.15 0 1 0 55.25-10.82z" fill="rgba(231, 54, 53, 0.42)"></path><path d="M820.42 465.12L832.6 465.12L832.6 477.3L820.42 477.3z" stroke="rgba(3, 123, 11, 0.6)"></path><path d="M711.62 30.58L763.03 30.58L763.03 81.99L711.62 81.99z" stroke="rgba(3, 123, 11, 0.6)"></path><path d="M184.56 348.69L203.55 348.69L203.55 367.68L184.56 367.68z" stroke="rgba(3, 123, 11, 0.6)"></path></g><defs><mask id="SvgjsMask1006"><rect width="1440" height="560" fill="#ffffff"></rect></mask></defs></svg>